<svg id="Capa_1" enable-background="new 0 0 512 512" fill="#ffff" height="512" viewBox="0 0 512 512" width="512" xmlns="http://www.w3.org/2000/svg"><g><circle cx="341.14" cy="66" r="10"/><path d="m478.41 193.68c6.55-2.78 12.43-6.74 17.48-11.79s9.02-10.93 11.79-17.479c2.86-6.78 4.32-13.98 4.32-21.41v-32c0-7.431-1.46-14.63-4.32-21.41-2.77-6.55-6.74-12.43-11.79-17.48s-10.93-9.02-17.48-11.79c-6.78-2.861-13.98-4.321-21.41-4.321h-70.86c-5.51 0-10 4.49-10 10s4.49 10 10 10h70.86c9.34 0 18.12 3.64 24.75 10.25 6.6 6.62 10.24 15.41 10.25 24.75v32c-.01 9.34-3.65 18.13-10.25 24.75-6.62 6.6-15.41 10.25-24.75 10.25s-18.13-3.65-24.75-10.25c-5.952-5.97-9.505-13.706-10.145-22.017-.07-.905-.119-3.348-.146-3.539-.194-2.345-1.22-4.595-2.889-6.264-1.86-1.86-4.44-2.93-7.07-2.93h-150v-57h34.14c5.52 0 10-4.49 10-10s-4.47-9.99-9.98-10c-.01 0-.01 0-.02 0h-44.14c-2.63 0-5.21 1.069-7.07 2.93-1.86 1.86-2.93 4.44-2.93 7.07v77c0 2.63 1.07 5.21 2.93 7.069 1.86 1.86 4.44 2.931 7.07 2.931h.57l-9.933 26.488c-1.152 3.071-.724 6.512 1.144 9.208s4.939 4.304 8.219 4.304h115c3.28 0 6.351-1.608 8.219-4.304s2.296-6.137 1.144-9.208l-9.933-26.488h35.57v134.5h-25v-37.5c0-16.542-13.458-30-30-30h-40c-16.542 0-30 13.458-30 30v15h-244.5c-17.92 0-32.5 14.579-32.5 32.5s14.58 32.5 32.5 32.5h12.5v116c0 5.522 4.477 10 10 10h267c5.523 0 10-4.478 10-10v-21.5h20v21.5c0 5.522 4.477 10 10 10h140c5.523 0 10-4.478 10-10v-150c0-2.856-1.222-5.576-3.356-7.474l-41.644-37.016v-54.43c3.906-.718 7.722-1.844 11.41-3.4zm-125.84-20.68h-86.14l7.5-20h71.14zm-55.57 77c0-5.514 4.486-10 10-10h40c5.514 0 10 4.486 10 10v15h-60zm-277 47.5c0-6.893 5.607-12.5 12.5-12.5h324.5v25h-324.5c-6.893 0-12.5-5.607-12.5-12.5zm292 138.5h-247v-106h247zm20-31.5v-74.5h35c5.523 0 10-4.478 10-10v-12.5h25v65.5h-40c-5.523 0-10 4.478-10 10v21.5zm40-11.5h30v43h-30zm50-207.589c4.749 3.928 10.074 7.009 15.82 9.148 2.99 1.112 6.057 1.953 9.18 2.528v238.913h-25zm45 250.589v-107.732l25 22.222v85.51zm25-135.51v23.242l-25-22.222v-23.241z"/></g></svg>