<?xml version="1.0" encoding="iso-8859-1"?>
<!-- Generator: Adobe Illustrator 19.0.0, SVG Export Plug-In . SVG Version: 6.00 Build 0)  -->
<svg version="1.1" id="Capa_1" xmlns="http://www.w3.org/2000/svg" xmlns:xlink="http://www.w3.org/1999/xlink" x="0px" y="0px"
	 viewBox="0 0 507.985 507.985" style="enable-background:new 0 0 507.985 507.985;" xml:space="preserve">
<g>
	<g>
		<g>
			<rect x="245.1" y="32.692" width="16.3" height="16.3"/>
			<rect x="245.1" y="457.492" width="16.3" height="16.3"/>
			<rect x="395.241" y="94.867" transform="matrix(0.7071 0.7071 -0.7071 0.7071 190.9945 -255.0678)" width="16.3" height="16.3"/>
			
				<rect x="94.884" y="395.277" transform="matrix(-0.7071 -0.7071 0.7071 -0.7071 -109.3759 761.5495)" width="16.3" height="16.3"/>
			<rect x="457.4" y="245.092" width="16.3" height="16.3"/>
			<rect x="32.7" y="245.092" width="16.3" height="16.3"/>
			<rect x="94.929" y="94.905" transform="matrix(0.7071 0.7071 -0.7071 0.7071 103.062 -42.704)" width="16.3" height="16.3"/>
			<path d="M507.9,445.092c-0.9-16.8-9-32.5-22.1-43l-49.8-41.1l1.7-2.4c7.9-13.9,14.3-28.6,18.9-43.9l49.9-5v-112.8l-49.9-5
				c-4.1-13.4-9.5-26.5-16.1-38.9l31.8-38.8l-79.8-79.8l-38.8,31.8c-12.4-6.7-25.5-12.1-38.9-16.1l-5-49.9h-113l-5,49.9
				c-13.4,4.1-26.5,9.5-38.9,16.1l-38.9-31.9l-79.8,79.8l31.9,38.8c-6.7,12.5-12.1,25.5-16.2,39l-49.9,5v112.8l49.9,5
				c4.1,13.5,9.5,26.5,16.2,38.9l-31.8,38.8l79.8,79.8l38.8-31.8c12.4,6.7,25.5,12.1,38.9,16.2l5,49.9h112.8l5-49.9
				c15.3-4.6,30.1-11,44.5-19.3l2.2-1.5l41.1,49.7c10.5,13.2,26.2,21.3,43,22.2c1.1,0.1,2.2,0.1,3.3,0.1c15.7,0,30.8-6.2,42-17.4
				C502.5,478.492,508.8,461.992,507.9,445.092z M350.4,423.492c-14.3,8.2-29.6,14.5-45.5,18.9l-5.4,1.5l-4.6,46.3h-83.2l-4.7-46.3
				l-5.4-1.5c-15.9-4.3-31.2-10.7-45.5-18.9l-4.9-2.8l-36,29.5l-58.9-58.9l29.5-36l-2.8-4.9c-8.2-14.3-14.5-29.6-18.9-45.5l-1.5-5.4
				l-46.3-4.6v-83.2l46.3-4.6l1.5-5.4c4.3-15.9,10.7-31.2,18.9-45.5l2.8-4.9l-29.5-36l58.9-58.9l36,29.5l4.9-2.8
				c14.3-8.2,29.6-14.6,45.5-18.9l5.4-1.5l4.6-46.3h83.2l4.6,46.3l5.4,1.5c15.9,4.3,31.2,10.7,45.5,18.9l4.9,2.8l36-29.5l58.9,58.9
				l-29.5,36l2.8,4.9c8.2,14.3,14.6,29.7,18.9,45.5l1.5,5.4l46.3,4.6v83.2l-46.3,4.6l-1.5,5.4c-4.3,15.9-10.7,31.2-18.5,45l-0.4,0.6
				l-32.1-26.6c11.2-21.9,17.2-46.2,17.2-70.7c0-85.6-69.6-155.2-155.2-155.2s-155.2,69.6-155.2,155.2s69.6,155.2,155.2,155.2
				c24.7,0,49.1-6,71.1-17.4l26.6,32.1L350.4,423.492z M345.8,247.792c-0.1-0.6-0.1-1.1-0.2-1.7c-0.4-3.5-1-6.9-1.8-10.4
				c-0.1-0.6-0.3-1.1-0.4-1.7c-0.9-3.4-1.9-6.8-3.2-10.1c-0.2-0.5-0.4-1-0.6-1.5c-1.3-3.3-2.9-6.6-4.6-9.8c-0.2-0.4-0.4-0.8-0.7-1.1
				c-1.8-3.2-3.9-6.4-6.1-9.4c-0.2-0.2-0.3-0.4-0.5-0.6c-2.4-3.1-5-6.1-7.8-9c-22.6-22.6-55.8-31.5-86.7-23.2l-13.7,3.7l56,56
				l-14.5,33.2l-31.6,13.2l-56.1-56.1l-3.6,13.7c-8.2,31,0.7,64.2,23.2,86.7c2.1,2.1,4.3,4,6.6,6c17.5,14.4,39.7,21.3,61.9,20.1
				c4.4-0.3,8.9-1,13.3-1.9c2.9-0.6,5.9-1.3,8.8-2.2l30.2,36.5c-18.8,9.1-39.5,13.9-60.4,13.9c-76.6,0-138.9-62.3-138.9-138.9
				s62.3-138.9,138.9-138.9s138.9,62.3,138.9,138.9c0,20.7-4.7,41.3-13.7,60l-36.5-29.9c0-0.1,0-0.2,0.1-0.2c1.1-3.6,2-7.3,2.7-11
				c0.1-0.4,0.2-0.9,0.2-1.3c0.6-3.6,0.9-7.2,1.1-10.8c0-0.5,0.1-1.1,0.1-1.6C346.3,254.892,346.2,251.292,345.8,247.792z
				 M479.1,478.792c-8.6,8.6-20.6,13.2-32.8,12.5c-12.2-0.7-23.6-6.5-31.3-16.2l-16.3-19.7l-59.9-72.5l-50.1-60.6l-5.5,2.1
				c-24.9,9.7-53,5.3-73.2-11.4c-1.9-1.6-3.8-3.3-5.5-5c-5-5-9.1-10.7-12.4-16.8c-6.5-11.9-9.6-25.5-8.9-39.1l42.5,42.5l47.7-19.9
				l21.7-49.3l-42.6-42.6c20.7-1.1,41.1,6.5,56,21.3c20.6,20.6,27,51.5,16.4,78.8l-2.1,5.5l60.5,50l92.4,76.4
				c9.5,7.6,15.4,19,16.1,31.2C492.3,458.192,487.7,470.192,479.1,478.792z"/>
			<path d="M448.8,423.292c-13.9,0-25.3,11.3-25.3,25.3s11.3,25.3,25.3,25.3c13.9,0,25.3-11.3,25.3-25.3
				S462.8,423.292,448.8,423.292z M448.8,457.492c-4.9,0-8.9-4-8.9-8.9c0-4.9,4-8.9,8.9-8.9c4.9,0,8.9,4,8.9,8.9
				C457.7,453.492,453.7,457.492,448.8,457.492z"/>
		</g>
	</g>
</g>
<g>
</g>
<g>
</g>
<g>
</g>
<g>
</g>
<g>
</g>
<g>
</g>
<g>
</g>
<g>
</g>
<g>
</g>
<g>
</g>
<g>
</g>
<g>
</g>
<g>
</g>
<g>
</g>
<g>
</g>
</svg>
